<svg width="28" height="28" viewBox="0 0 28 28" fill="none" xmlns="http://www.w3.org/2000/svg">
<path d="M25.6668 13.9997C25.6668 20.4426 20.4431 25.6663 14.0002 25.6663C7.55725 25.6663 2.3335 20.4426 2.3335 13.9997C2.3335 7.55676 7.55725 2.33301 14.0002 2.33301C20.4431 2.33301 25.6668 7.55676 25.6668 13.9997Z" fill="url(#paint0_linear_35_15822)"/>
<path opacity="0.05" d="M5.90293 13.6881C10.66 11.5327 16.2472 9.1941 17.1076 8.85577C19.0046 8.10968 19.8318 8.8721 19.7023 10.0884C19.543 11.5788 18.7882 15.9158 18.3238 19.0233C18.052 20.8415 17.0673 21.3986 15.9561 20.6933C15.1132 20.1584 12.2152 18.2608 11.4528 17.6122C10.933 17.17 10.5708 16.6742 10.9394 16.169C11.0473 16.0214 11.3233 15.7239 11.4767 15.5758C12.2461 14.8303 12.1423 14.6698 11.2118 15.3354C11.101 15.4148 10.4582 15.8808 10.1939 16.057C9.54642 16.4887 8.95084 16.512 7.94109 16.169C7.11509 15.8884 6.32176 15.672 5.82126 15.4556C5.13001 15.1563 4.86518 14.1583 5.90293 13.6881Z" fill="black"/>
<path opacity="0.07" d="M6.32123 13.7617C10.7382 11.7871 16.1702 9.52437 16.9647 9.20412C18.8687 8.43528 19.5693 8.89145 19.3646 10.3772C19.1744 11.7527 18.4995 16.0087 18.0264 18.8618C17.7476 20.5412 16.9332 20.911 15.8727 20.225C15.2083 19.7969 12.5343 18.0352 11.8856 17.5224C11.384 17.1264 10.8642 16.669 11.4715 16.0069C11.6745 15.7859 12.7956 14.7038 13.6339 13.8988C14.1198 13.4315 13.9466 13.2011 13.3603 13.6024C12.2852 14.3392 10.5265 15.5053 10.2126 15.717C9.61473 16.1195 9.05298 16.2164 8.07532 15.9089C7.30473 15.6663 6.5604 15.4312 6.17248 15.2801C5.30565 14.9441 5.29398 14.2208 6.32123 13.7617Z" fill="black"/>
<path d="M6.73901 13.8345C10.8165 12.0407 16.0928 9.85382 16.8213 9.55107C18.7318 8.7589 19.318 8.91056 19.0258 10.6652C18.8158 11.9264 18.2103 16.1013 17.7273 18.7001C17.4408 20.2412 16.798 20.4238 15.7877 19.7571C15.3018 19.4362 12.8488 17.814 12.3163 17.4331C11.8303 17.086 11.1601 16.6683 12.0007 15.8458C12.2999 15.553 14.2605 13.6805 15.7883 12.2233C15.9883 12.032 15.7369 11.7176 15.5059 11.871C13.4468 13.2366 10.5919 15.1318 10.2285 15.3786C9.67959 15.7513 9.15226 15.9222 8.20609 15.6504C7.49093 15.4451 6.79268 15.2001 6.52084 15.1067C5.47376 14.7474 5.72226 14.2819 6.73901 13.8345Z" fill="white"/>
<defs>
<linearGradient id="paint0_linear_35_15822" x1="5.75066" y1="5.75017" x2="22.2497" y2="22.2492" gradientUnits="userSpaceOnUse">
<stop stop-color="#33BEF0"/>
<stop offset="1" stop-color="#0A85D9"/>
</linearGradient>
</defs>
</svg>
