<svg width="20" height="20" viewBox="0 0 20 20" fill="none" xmlns="http://www.w3.org/2000/svg">
<path d="M10.0002 0.833008C4.94569 0.833008 0.833496 4.94521 0.833496 9.99967C0.833496 15.0541 4.94569 19.1663 10.0002 19.1663C15.0546 19.1663 19.1668 15.0541 19.1668 9.99967C19.1668 4.94521 15.0546 0.833008 10.0002 0.833008ZM10.0002 2.20801C14.3115 2.20801 17.7918 5.68831 17.7918 9.99967C17.7918 14.311 14.3115 17.7913 10.0002 17.7913C5.6888 17.7913 2.2085 14.311 2.2085 9.99967C2.2085 5.68831 5.6888 2.20801 10.0002 2.20801ZM9.76025 4.48983C9.57807 4.49267 9.40447 4.56771 9.27758 4.69847C9.15069 4.82922 9.08088 5.00499 9.0835 5.18717V10.6872C9.08351 10.8695 9.15595 11.0444 9.28488 11.1733C9.41381 11.3022 9.58867 11.3747 9.771 11.3747H13.4377C13.5288 11.376 13.6192 11.3591 13.7038 11.3252C13.7883 11.2912 13.8652 11.2408 13.9301 11.1768C13.995 11.1128 14.0465 11.0366 14.0817 10.9525C14.1168 10.8685 14.135 10.7783 14.135 10.6872C14.135 10.5961 14.1168 10.5059 14.0817 10.4218C14.0465 10.3378 13.995 10.2615 13.9301 10.1976C13.8652 10.1336 13.7883 10.0832 13.7038 10.0492C13.6192 10.0152 13.5288 9.99839 13.4377 9.99967H10.4585V5.18717C10.4598 5.09516 10.4427 5.00381 10.408 4.91855C10.3734 4.83329 10.322 4.75585 10.2569 4.69082C10.1918 4.62578 10.1142 4.57449 10.0289 4.53996C9.94364 4.50544 9.85227 4.48839 9.76025 4.48983Z" fill="#4BA2F2"/>
</svg>
