<svg width="28" height="28" viewBox="0 0 28 28" fill="none" xmlns="http://www.w3.org/2000/svg">
<path d="M13.9998 2.91699C12.4604 2.91699 7.77567 2.91699 5.18567 5.28183C3.64334 6.81833 2.9165 9.03849 2.9165 12.2503V14.0003C2.9165 17.2122 3.64334 19.4323 5.20375 20.9863C5.98075 21.6951 7.04009 22.2615 8.33509 22.6529L8.74984 22.7777V25.8857C8.74984 26.2503 8.85542 26.2503 8.89042 26.2503C8.96217 26.2503 9.07709 26.2276 9.29525 26.0339C9.34775 25.982 9.73275 25.5655 11.6053 23.4678L11.7943 23.2561L12.0772 23.2742C12.7043 23.3132 13.3512 23.3337 13.9998 23.3337C15.5393 23.3337 20.224 23.3337 22.814 20.9682C24.3558 19.4317 25.0832 17.2116 25.0832 14.0003V12.2503C25.0832 9.03849 24.3563 6.81833 22.7959 5.26433C20.224 2.91699 15.5393 2.91699 13.9998 2.91699Z" fill="white"/>
<path d="M19.513 16.8318C18.8649 16.2858 18.5656 16.1207 17.6708 15.5835C17.298 15.3601 16.7299 15.167 16.4318 15.167C16.2282 15.167 15.9844 15.3227 15.835 15.4721C15.4524 15.8547 15.327 16.3337 14.6561 16.3337C13.9999 16.3337 12.8536 15.6657 12.0311 14.8024C11.1678 13.9799 10.4999 12.8337 10.4999 12.1774C10.4999 11.5066 10.97 11.3724 11.3527 10.9892C11.502 10.8404 11.6665 10.5966 11.6665 10.393C11.6665 10.0949 11.4735 9.53549 11.25 9.16274C10.7128 8.26733 10.5483 7.96808 10.0017 7.32058C9.81679 7.10124 9.60621 7.00091 9.38571 7.00033C9.01296 6.99974 8.52354 7.18466 8.19221 7.43141C7.69404 7.80299 7.17313 8.30874 7.03371 8.93874C7.01504 9.02449 7.00396 9.11083 7.00046 9.19716C6.97363 9.85341 7.23146 10.5196 7.50971 11.0837C8.16479 12.4131 9.03163 13.6999 9.97488 14.8491C10.2765 15.2166 10.6049 15.5584 10.945 15.8886C11.2751 16.2281 11.617 16.5565 11.9845 16.8587C13.1336 17.8019 14.4205 18.6687 15.7499 19.3238C16.3087 19.5992 16.9667 19.8523 17.6165 19.8337C17.7093 19.8307 17.802 19.8202 17.8948 19.7998C18.5248 19.661 19.0305 19.1395 19.4021 18.6413C19.6489 18.31 19.8338 17.8212 19.8332 17.4478C19.8326 17.2273 19.7323 17.0167 19.513 16.8318ZM19.8332 14.0003C19.5112 14.0003 19.2499 13.739 19.2499 13.417V12.8337C19.2499 9.93916 16.8944 7.58366 13.9999 7.58366C13.6779 7.58366 13.4165 7.32233 13.4165 7.00033C13.4165 6.67833 13.6779 6.41699 13.9999 6.41699C17.5378 6.41699 20.4165 9.29574 20.4165 12.8337V13.417C20.4165 13.739 20.1552 14.0003 19.8332 14.0003ZM16.2504 12.8337C15.9914 12.8337 15.7545 12.6598 15.6863 12.3973C15.5265 11.7842 15.0481 11.3053 14.4374 11.1478C14.1253 11.0667 13.938 10.7488 14.0185 10.4367C14.099 10.1252 14.4164 9.93799 14.7296 10.0179C15.7493 10.2822 16.5485 11.0807 16.815 12.1027C16.8961 12.4148 16.7095 12.7327 16.398 12.8144C16.3484 12.8272 16.2988 12.8337 16.2504 12.8337Z" fill="#7E57C2"/>
<path d="M18.0834 13.4167C17.7614 13.4167 17.5001 13.1554 17.5001 12.8334C17.5001 10.9737 16.0452 9.43957 14.1879 9.34157C13.8659 9.32466 13.6192 9.04991 13.6361 8.72849C13.653 8.40649 13.9324 8.15916 14.2492 8.17666C16.7266 8.30732 18.6667 10.3531 18.6667 12.8334C18.6667 13.1554 18.4054 13.4167 18.0834 13.4167Z" fill="#7E57C2"/>
<path d="M14 2.33301C11.375 2.33301 7.28463 2.57451 4.79263 4.85067C3.03097 6.60476 2.3333 9.06526 2.3333 12.2497C2.3333 12.5133 2.33213 12.8073 2.33447 13.1247C2.33213 13.4414 2.3333 13.7354 2.3333 13.9991C2.3333 17.1835 3.03097 19.644 4.79263 21.3981C5.74113 22.2643 6.92413 22.8343 8.16663 23.2099V25.8851C8.16663 26.8161 8.77855 26.833 8.89055 26.833H8.8958C9.18397 26.8318 9.43305 26.6907 9.68272 26.469C9.77663 26.3856 10.8611 25.1769 12.0406 23.8551C12.7429 23.9 13.4102 23.9163 13.9994 23.9163C16.6244 23.9163 20.7141 23.6743 23.2067 21.3981C24.9678 19.6446 25.6661 17.1835 25.6661 13.9991C25.6661 13.7354 25.6672 13.4414 25.6649 13.1241C25.6672 12.8068 25.6661 12.5133 25.6661 12.2491C25.6661 9.06467 24.9684 6.60417 23.2067 4.85009C20.7147 2.57451 16.625 2.33301 14 2.33301ZM23.9166 13.7961V13.9991C23.9166 16.8609 23.3071 18.811 21.9998 20.1311C19.7353 22.1663 15.4216 22.1663 13.9994 22.1663C13.5666 22.1663 12.8642 22.1658 12.0353 22.108C11.8049 22.367 9.3333 25.1314 9.3333 25.1314V21.7113C8.10597 21.4168 6.89322 20.9338 6.00013 20.1317C4.69288 18.811 4.0833 16.8609 4.0833 13.9991V13.7961C4.0833 13.5913 4.08272 13.3703 4.08447 13.1118C4.08272 12.8785 4.08272 12.658 4.0833 12.4527V12.2497C4.0833 9.38784 4.69288 7.43776 6.00013 6.11767C8.26405 4.08242 12.5784 4.08242 14 4.08242C15.4215 4.08242 19.7353 4.08242 21.9992 6.11767C23.3071 7.43776 23.9161 9.38784 23.9161 12.2497V12.4527C23.9161 12.6574 23.9166 12.8785 23.9149 13.1369C23.9166 13.3708 23.9166 13.5913 23.9166 13.7961Z" fill="#7E57C2"/>
</svg>
