<svg width="36" height="36" viewBox="0 0 36 36" fill="none" xmlns="http://www.w3.org/2000/svg">
<circle cx="18" cy="18" r="17.5" stroke="#4BA2F2"/>
<path d="M17.9345 10.8955C15.0228 10.8955 12.3176 11.103 10.7739 11.4255C10.7706 11.4263 10.7674 11.4272 10.7641 11.4281C9.6011 11.6887 8.50601 12.5218 8.27547 13.8263C8.27517 13.8281 8.27487 13.8299 8.27458 13.8317C8.09747 14.8831 7.9165 16.2537 7.9165 18.2288C7.9165 20.2002 8.09809 21.5345 8.32202 22.6412C8.55821 23.9073 9.62802 24.7655 10.8088 25.0295C10.8145 25.0311 10.8202 25.0326 10.8258 25.034C12.4369 25.3515 15.0658 25.5622 17.9775 25.5622C20.8891 25.5622 23.5194 25.3515 25.1309 25.034C25.1365 25.0326 25.1422 25.0311 25.1479 25.0295C26.3109 24.7689 27.4059 23.9359 27.6365 22.6313C27.6371 22.6281 27.6377 22.6248 27.6383 22.6215C27.8127 21.5486 28.0386 20.1793 28.0832 18.2011C28.0832 18.196 28.0832 18.1909 28.0832 18.1859C28.0832 16.2065 27.8566 14.8274 27.6356 13.735C27.4013 12.4662 26.3302 11.6057 25.1479 11.3413C25.1298 11.3373 25.1116 11.334 25.0933 11.3315C23.5211 11.1104 20.8466 10.8955 17.9345 10.8955ZM16.2381 14.7922C16.4079 14.7887 16.5834 14.8289 16.7484 14.922L20.6917 17.1501C21.3567 17.526 21.3567 18.4743 20.6917 18.8501L16.7484 21.0782C16.0888 21.4504 15.2668 20.979 15.2668 20.2278V15.7716C15.2668 15.2082 15.7288 14.8028 16.2381 14.7922Z" fill="#4B4F5A"/>
</svg>
