<svg width="36" height="36" viewBox="0 0 36 36" fill="none" xmlns="http://www.w3.org/2000/svg">
<circle cx="18" cy="18" r="17.5" stroke="#4BA2F2"/>
<path d="M14.5623 9.29199C11.6594 9.29199 9.2915 11.6599 9.2915 14.5628V21.4378C9.2915 24.3403 11.6593 26.7087 14.5623 26.7087H21.4373C24.3399 26.7087 26.7082 24.3404 26.7082 21.4378V14.5628C26.7082 11.6598 24.3399 9.29199 21.4373 9.29199H14.5623ZM14.5623 10.667H21.4373C23.5967 10.667 25.3332 12.4031 25.3332 14.5628V21.4378C25.3332 23.5971 23.5966 25.3337 21.4373 25.3337H14.5623C12.4026 25.3337 10.6665 23.5971 10.6665 21.4378V14.5628C10.6665 12.403 12.4025 10.667 14.5623 10.667ZM22.5832 12.5003C22.0767 12.5003 21.6665 12.9105 21.6665 13.417C21.6665 13.9235 22.0767 14.3337 22.5832 14.3337C23.0896 14.3337 23.4998 13.9235 23.4998 13.417C23.4998 12.9105 23.0896 12.5003 22.5832 12.5003ZM17.9998 13.417C15.4768 13.417 13.4165 15.4773 13.4165 18.0003C13.4165 20.5234 15.4768 22.5837 17.9998 22.5837C20.5229 22.5837 22.5832 20.5234 22.5832 18.0003C22.5832 15.4773 20.5229 13.417 17.9998 13.417ZM17.9998 14.792C19.7796 14.792 21.2082 16.2205 21.2082 18.0003C21.2082 19.7801 19.7796 21.2087 17.9998 21.2087C16.22 21.2087 14.7915 19.7801 14.7915 18.0003C14.7915 16.2205 16.22 14.792 17.9998 14.792Z" fill="#4B4F5A"/>
</svg>
