<svg width="20" height="16" viewBox="0 0 20 16" fill="none" xmlns="http://www.w3.org/2000/svg">
<path d="M3.81266 0.666992C2.17552 0.666992 0.833496 2.00902 0.833496 3.64616V12.3545C0.833496 13.9916 2.17552 15.3337 3.81266 15.3337H16.1877C17.8248 15.3337 19.1668 13.9916 19.1668 12.3545V3.64616C19.1668 2.00902 17.8248 0.666992 16.1877 0.666992H3.81266ZM3.81266 2.04199H16.1877C17.0814 2.04199 17.7918 2.75238 17.7918 3.64616V4.15283L10.0002 8.36466L2.2085 4.15283V3.64616C2.2085 2.75238 2.91888 2.04199 3.81266 2.04199ZM2.2085 5.71582L9.67342 9.7513C9.7738 9.80551 9.88608 9.8339 10.0002 9.8339C10.1142 9.8339 10.2265 9.80551 10.3269 9.7513L17.7918 5.71582V12.3545C17.7918 13.2483 17.0814 13.9587 16.1877 13.9587H3.81266C2.91888 13.9587 2.2085 13.2483 2.2085 12.3545V5.71582Z" fill="#4BA2F2"/>
</svg>
