<svg width="36" height="36" viewBox="0 0 36 36" fill="none" xmlns="http://www.w3.org/2000/svg">
<circle cx="18" cy="18" r="17.5" stroke="#4BA2F2"/>
<path d="M18 7.91699C15.2157 7.91699 12.9584 10.1743 12.9584 12.9587C12.9584 15.743 15.2157 18.0003 18 18.0003C20.7844 18.0003 23.0417 15.743 23.0417 12.9587C23.0417 10.1743 20.7844 7.91699 18 7.91699ZM18 11.1012C19.0258 11.1012 19.8575 11.9324 19.8575 12.9587C19.8575 13.9844 19.0258 14.8162 18 14.8162C16.9743 14.8162 16.1425 13.9849 16.1425 12.9587C16.1425 11.9329 16.9738 11.1012 18 11.1012ZM22.2101 18.0218C21.8514 18.0047 21.4946 18.0935 21.1797 18.2832C19.2776 19.4286 16.722 19.4286 14.8204 18.2832C13.9541 17.7612 12.8256 18.0418 12.304 18.908C12.0515 19.3279 11.9767 19.8203 12.0945 20.2956C12.2128 20.7709 12.509 21.1723 12.9288 21.4244C13.5985 21.8277 14.3148 22.1481 15.0683 22.3813L12.5045 25.0311C12.1796 25.3973 12.0155 25.8678 12.0444 26.3568C12.0733 26.8459 12.2905 27.2936 12.6567 27.6191C13.0069 27.9303 13.4446 28.0828 13.8786 28.0828C14.381 28.0828 14.8788 27.8786 15.2321 27.4812L18 24.6202L20.7563 27.466C21.1037 27.8574 21.6034 28.081 22.1268 28.081C22.5755 28.081 23.0079 27.9165 23.3443 27.6182C24.0996 26.9467 24.1687 25.7859 23.4839 25.0159L20.9318 22.3813C21.6853 22.1476 22.4025 21.8268 23.0721 21.4235C23.4915 21.171 23.7878 20.7709 23.9056 20.2956C24.0234 19.8203 23.9486 19.3274 23.6961 18.908C23.4435 18.4887 23.0434 18.1924 22.5682 18.0746C22.4494 18.0451 22.3297 18.0275 22.2101 18.0218Z" fill="#4B4F5A"/>
</svg>
