<svg width="36" height="36" viewBox="0 0 36 36" fill="none" xmlns="http://www.w3.org/2000/svg">
<circle cx="18" cy="18" r="17.5" stroke="#4BA2F2"/>
<path d="M19.6546 19.6546C18.3064 21.0458 18.2083 22.7802 18.0919 26.5799C21.6342 26.5799 24.0795 26.5677 25.342 25.342C26.5677 24.0795 26.5799 21.5177 26.5799 18.0919C22.7802 18.2144 21.0458 18.3064 19.6546 19.6546ZM9.41992 18.0919C9.41992 21.5177 9.43218 24.0795 10.6579 25.342C11.9204 26.5677 14.3657 26.5799 17.908 26.5799C17.7854 22.7802 17.6935 21.0458 16.3452 19.6546C14.954 18.3064 13.2196 18.2083 9.41992 18.0919ZM17.908 9.41992C14.3718 9.41992 11.9204 9.43218 10.6579 10.6579C9.43218 11.9204 9.41992 14.4821 9.41992 17.908C13.2196 17.7854 14.954 17.6935 16.3452 16.3452C17.6935 14.954 17.7916 13.2196 17.908 9.41992ZM19.6546 16.3452C18.3064 14.954 18.2083 13.2196 18.0919 9.41992C21.6342 9.41992 24.0795 9.43218 25.342 10.6579C26.5677 11.9204 26.5799 14.4821 26.5799 17.908C22.7802 17.7854 21.0458 17.6935 19.6546 16.3452Z" fill="#4B4F5A"/>
<path d="M26.5799 18.0919V17.908C22.7802 17.7854 21.0458 17.6935 19.6546 16.3452C18.3064 14.954 18.2083 13.2196 18.0919 9.41992H17.908C17.7854 13.2196 17.6935 14.954 16.3452 16.3452C14.954 17.6935 13.2196 17.7916 9.41992 17.908V18.0919C13.2196 18.2144 14.954 18.3064 16.3452 19.6546C17.6935 21.0458 17.7916 22.7802 17.908 26.5799H18.0919C18.2144 22.7802 18.3064 21.0458 19.6546 19.6546C21.0458 18.3064 22.7802 18.2083 26.5799 18.0919Z" fill="white"/>
</svg>
