<svg width="36" height="36" viewBox="0 0 36 36" fill="none" xmlns="http://www.w3.org/2000/svg">
<circle cx="18" cy="18" r="17.5" stroke="#4BA2F2"/>
<path d="M27.5332 12.087C26.8314 12.3987 26.0776 12.6084 25.2863 12.703C26.0944 12.219 26.7141 11.4527 27.006 10.5389C26.2506 10.987 25.4132 11.3126 24.5214 11.4886C23.8079 10.7281 22.7915 10.2529 21.6666 10.2529C19.5062 10.2529 17.755 12.0049 17.755 14.1645C17.755 14.4711 17.7902 14.7703 17.8562 15.0555C14.6053 14.8927 11.7233 13.3351 9.79315 10.9679C9.45729 11.5458 9.26442 12.2175 9.26442 12.9355C9.26442 14.2921 9.95449 15.4897 11.0039 16.1907C10.363 16.1702 9.75942 15.9942 9.23215 15.7016C9.23215 15.7185 9.23215 15.7339 9.23215 15.7507C9.23215 17.6464 10.58 19.2275 12.3701 19.5861C12.0423 19.6755 11.6962 19.7232 11.339 19.7232C11.0875 19.7232 10.8418 19.6983 10.6035 19.6535C11.1014 21.2075 12.5461 22.339 14.2577 22.3705C12.9194 23.4199 11.2327 24.0455 9.39935 24.0455C9.08402 24.0455 8.77235 24.0271 8.46582 23.9905C10.1972 25.1 12.2528 25.7475 14.4623 25.7475C21.6578 25.7475 25.5914 19.787 25.5914 14.6177C25.5914 14.4483 25.5877 14.2797 25.5804 14.1117C26.3452 13.5595 27.0089 12.8709 27.5332 12.087Z" fill="#4B4F5A"/>
</svg>
