<svg width="36" height="36" viewBox="0 0 36 36" fill="none" xmlns="http://www.w3.org/2000/svg">
<circle cx="18" cy="18" r="17.5" stroke="#4BA2F2"/>
<path d="M27.9747 23.1338C27.1511 21.6516 25.0295 19.8705 24.1536 19.0954C23.9139 18.8832 23.8882 18.5161 24.1064 18.2814C25.7779 16.4852 27.1149 14.4214 27.5751 13.1742C27.7781 12.6233 27.3578 12.0412 26.7656 12.0412H25.0455C24.4786 12.0412 24.1467 12.2447 23.9886 12.5688C22.5994 15.4155 21.4077 16.6475 20.5736 17.3675C20.1065 17.7709 19.3782 17.4367 19.3782 16.823C19.3782 15.6405 19.3782 14.112 19.3782 13.028C19.3782 12.5023 18.9483 12.077 18.418 12.077L15.2757 12.0412C14.8801 12.0412 14.6542 12.489 14.8916 12.803L15.4104 13.5478C15.6057 13.8058 15.7111 14.1198 15.7111 14.442L15.7083 17.7961C15.7083 18.3795 15.0011 18.6646 14.5813 18.2558C13.1609 16.8725 11.9285 14.0478 11.4848 12.6971C11.3565 12.3062 10.9903 12.0422 10.575 12.0412L8.88055 12.0371C8.24484 12.0371 7.78009 12.6398 7.95288 13.2467C9.50113 18.6811 12.6778 23.8511 18.3392 24.4117C18.897 24.4667 19.3782 24.0175 19.3782 23.4615V21.6988C19.3782 21.1932 19.7747 20.7587 20.2843 20.7459C20.3022 20.7454 20.3201 20.7454 20.338 20.7454C21.8353 20.7454 23.5124 22.9248 24.0991 23.9442C24.2677 24.2375 24.5831 24.4162 24.9241 24.4162H27.2033C27.8684 24.4162 28.2951 23.7109 27.9747 23.1338Z" fill="#4B4F5A"/>
</svg>
