<svg width="28" height="28" viewBox="0 0 28 28" fill="none" xmlns="http://www.w3.org/2000/svg">
<path fill-rule="evenodd" clip-rule="evenodd" d="M2.83984 25.2604L4.41134 19.5233C3.44184 17.8445 2.93201 15.9393 2.93259 13.9881C2.93551 7.88349 7.90318 2.91699 14.0083 2.91699C16.9711 2.91816 19.7513 4.07141 21.8425 6.16383C23.9332 8.25683 25.0847 11.0382 25.0835 13.9968C25.0812 20.1014 20.1123 25.0685 14.0083 25.0685C14.0078 25.0685 14.0083 25.0685 14.0083 25.0685H14.0037C12.1504 25.0679 10.3287 24.603 8.71109 23.7204L2.83984 25.2604Z" fill="white"/>
<path fill-rule="evenodd" clip-rule="evenodd" d="M2.83975 25.5518C2.76275 25.5518 2.68808 25.5214 2.63267 25.4654C2.55975 25.3913 2.53117 25.2834 2.55858 25.1837L4.098 19.5627C3.14367 17.8675 2.64025 15.9425 2.64142 13.9883C2.64375 7.72217 7.74267 2.625 14.0083 2.625C17.0474 2.62617 19.9028 3.80975 22.0489 5.95758C24.195 8.106 25.3763 10.9608 25.3751 13.9965C25.3728 20.2621 20.2733 25.3598 14.0083 25.3598C12.148 25.3593 10.3076 24.9002 8.67425 24.0316L2.91383 25.5418C2.88933 25.5488 2.86483 25.5518 2.83975 25.5518Z" fill="white"/>
<path fill-rule="evenodd" clip-rule="evenodd" d="M14.0079 2.91634C16.9707 2.91751 19.7509 4.07076 21.8421 6.16317C23.9328 8.25618 25.0843 11.0375 25.0831 13.9962C25.0808 20.1008 20.1119 25.0678 14.0079 25.0678H14.0033C12.15 25.0673 10.3283 24.6023 8.71068 23.7198L2.83943 25.2598L4.41093 19.5227C3.44143 17.8438 2.9316 15.9387 2.93218 13.9874C2.9351 7.88284 7.90277 2.91634 14.0079 2.91634ZM14.0079 2.33301C7.58193 2.33301 2.35177 7.56084 2.34885 13.9874C2.34827 15.9515 2.8441 17.887 3.78443 19.6003L2.27652 25.1063C2.22168 25.3076 2.27768 25.5223 2.42468 25.6704C2.53552 25.7824 2.68543 25.8437 2.83943 25.8437C2.88902 25.8437 2.9386 25.8373 2.9876 25.8244L8.63835 24.3428C10.288 25.1991 12.1372 25.6512 14.0033 25.6518C20.4339 25.6518 25.6641 20.4233 25.667 13.9968C25.6682 10.8823 24.4566 7.95401 22.2557 5.75134C20.0536 3.54809 17.1247 2.33417 14.0079 2.33301Z" fill="#CFD8DC"/>
<path fill-rule="evenodd" clip-rule="evenodd" d="M20.5191 7.48561C18.7808 5.74611 16.4702 4.78769 14.0108 4.78711C8.93351 4.78711 4.80409 8.91478 4.80176 13.9886C4.80118 15.7275 5.28768 17.4204 6.20934 18.8863L6.42868 19.2345L5.49826 22.6301L8.98251 21.7166L9.31909 21.9161C10.7319 22.7549 12.3524 23.1983 14.0044 23.1989H14.0079C19.0818 23.1989 23.2112 19.0706 23.2129 13.9962C23.2135 11.5374 22.2574 9.22511 20.5191 7.48561Z" fill="#40C351"/>
<path fill-rule="evenodd" clip-rule="evenodd" d="M11.2395 9.35976C11.0324 8.89893 10.8142 8.8896 10.6165 8.88143C10.4549 8.87443 10.2706 8.87501 10.0862 8.87501C9.90189 8.87501 9.60206 8.94443 9.34831 9.22151C9.09456 9.4986 8.37939 10.1677 8.37939 11.5292C8.37939 12.8907 9.37106 14.2067 9.50931 14.391C9.64756 14.5753 11.4238 17.4588 14.2366 18.5683C16.5741 19.4899 17.0501 19.3068 17.5576 19.2607C18.0651 19.2146 19.195 18.5916 19.4254 17.9453C19.6558 17.2989 19.6558 16.7453 19.587 16.6298C19.5176 16.5143 19.3332 16.4455 19.0567 16.3067C18.7802 16.1678 17.4193 15.4988 17.1656 15.4066C16.9118 15.3144 16.7275 15.2683 16.5426 15.5454C16.3582 15.8219 15.828 16.4455 15.6664 16.6298C15.5048 16.8148 15.3432 16.8381 15.0667 16.6993C14.7902 16.5604 13.8989 16.2688 12.8413 15.3261C12.0188 14.5928 11.4635 13.6869 11.3019 13.4098C11.1403 13.1333 11.2844 12.9834 11.4232 12.8452C11.5475 12.7209 11.6997 12.522 11.8386 12.3604C11.9768 12.1988 12.0229 12.0833 12.1151 11.899C12.2072 11.7141 12.1611 11.5525 12.0917 11.4143C12.0235 11.2754 11.4856 9.90693 11.2395 9.35976Z" fill="white"/>
</svg>
