<svg width="191" height="191" viewBox="0 0 191 191" fill="none" xmlns="http://www.w3.org/2000/svg">
<g filter="url(#filter0_d_70_3)">
<path d="M126 90.5C126 110.106 110.106 126 90.5 126C70.8939 126 55 110.106 55 90.5C55 70.8939 70.8939 55 90.5 55C110.106 55 126 70.8939 126 90.5Z" fill="white"/>
</g>
<path d="M96.0477 76.7745C97.3736 76.1134 98.9879 76.6491 99.6535 77.9768L105.182 89.0331H99.1724L94.8464 80.3812C94.1826 79.0527 94.721 77.4393 96.0477 76.7745Z" fill="#DEC197"/>
<path d="M96.0666 81.2537C97.4095 80.5926 99.0426 81.1283 99.7171 82.4559L105.312 93.5123H99.2298L94.8501 84.8603C94.1782 83.5318 94.7229 81.9184 96.0666 81.2537Z" fill="#DEC197"/>
<path d="M94.0495 96.9676L96.4566 88.295C96.9143 86.6959 98.7311 85.8548 100.287 86.6494C101.442 87.2388 101.953 88.6238 101.597 89.8708L99.3967 97.5705H100.184L102.464 88.45L96.6375 76.7979C95.9746 75.4703 96.5121 73.856 97.8397 73.1922C99.1656 72.531 100.78 73.0667 101.445 74.3944L107.716 86.9369C108.003 87.5112 108.076 88.1678 107.92 88.7904L104.417 101.575L107.104 106.054L98.1461 110.533L95.3368 105.611C93.7028 103.041 93.236 99.9005 94.0495 96.9676Z" fill="#F8DBB0"/>
<path d="M99.35 97.7585L101.585 89.9164C101.991 88.4947 101.268 86.9207 99.8588 86.4728C99.2757 86.2874 98.6799 86.317 98.146 86.5069V84.657C98.439 84.5961 98.7373 84.554 99.0445 84.554C99.4584 84.554 99.8714 84.6113 100.273 84.726C101.606 85.1067 102.675 86.0643 103.207 87.3812C103.597 88.3451 103.588 89.4255 103.302 90.4252L101.073 98.2503C100.943 98.7036 100.484 98.9796 100.023 98.8801C99.5157 98.7717 99.2076 98.2566 99.35 97.7585Z" fill="#DEC197"/>
<path d="M84.7623 76.7745C83.4365 76.1134 81.8222 76.6491 81.1566 77.9768L75.6284 89.0331H81.6377L85.9636 80.3812C86.6275 79.0527 86.0891 77.4393 84.7623 76.7745Z" fill="#DEC197"/>
<path d="M84.7435 81.2537C83.4006 80.5926 81.7675 81.1283 81.0929 82.4559L75.4976 93.5123H81.5803L85.96 84.8603C86.6319 83.5318 86.0872 81.9184 84.7435 81.2537Z" fill="#DEC197"/>
<path d="M86.7606 96.9676L84.3535 88.295C83.8957 86.6959 82.079 85.8548 80.5229 86.6494C79.3682 87.2388 78.8567 88.6238 79.2132 89.8708L81.4134 97.5705H80.6259L78.346 88.45L84.1725 76.7979C84.8355 75.4703 84.298 73.856 82.9703 73.1922C81.6445 72.531 80.0302 73.0667 79.3646 74.3944L73.0938 86.9369C72.8071 87.5112 72.7345 88.1678 72.8904 88.7904L76.3931 101.575L73.7056 106.054L82.664 110.533L85.4733 105.611C87.1073 103.041 87.574 99.9005 86.7606 96.9676Z" fill="#F8DBB0"/>
<path d="M81.46 97.7585L79.2249 89.9164C78.8191 88.4947 79.5421 86.9207 80.9512 86.4728C81.5344 86.2874 82.1301 86.317 82.664 86.5069V84.657C82.3711 84.5961 82.0728 84.554 81.7655 84.554C81.3516 84.554 80.9387 84.6113 80.5373 84.726C79.2043 85.1067 78.1347 86.0643 77.6026 87.3812C77.2129 88.3451 77.2219 89.4255 77.5076 90.4252L79.7374 98.2503C79.8673 98.7036 80.3259 98.9796 80.7873 98.8801C81.2943 98.7717 81.6025 98.2566 81.46 97.7585Z" fill="#DEC197"/>
<g opacity="0.1" filter="url(#filter1_d_70_3)">
<path fill-rule="evenodd" clip-rule="evenodd" d="M90.5001 119.794C106.679 119.794 119.794 106.679 119.794 90.5C119.794 74.3213 106.679 61.2059 90.5001 61.2059C74.3214 61.2059 61.206 74.3213 61.206 90.5C61.206 106.679 74.3214 119.794 90.5001 119.794ZM90.5001 120.695C107.177 120.695 120.695 107.176 120.695 90.5C120.695 73.8235 107.177 60.3046 90.5001 60.3046C73.8236 60.3046 60.3047 73.8235 60.3047 90.5C60.3047 107.176 73.8236 120.695 90.5001 120.695Z" fill="#4B4F5A"/>
</g>
<defs>
<filter id="filter0_d_70_3" x="0" y="0" width="191" height="191" filterUnits="userSpaceOnUse" color-interpolation-filters="sRGB">
<feFlood flood-opacity="0" result="BackgroundImageFix"/>
<feColorMatrix in="SourceAlpha" type="matrix" values="0 0 0 0 0 0 0 0 0 0 0 0 0 0 0 0 0 0 127 0" result="hardAlpha"/>
<feOffset dx="5" dy="5"/>
<feGaussianBlur stdDeviation="30"/>
<feComposite in2="hardAlpha" operator="out"/>
<feColorMatrix type="matrix" values="0 0 0 0 0.294118 0 0 0 0 0.309804 0 0 0 0 0.352941 0 0 0 0.2 0"/>
<feBlend mode="normal" in2="BackgroundImageFix" result="effect1_dropShadow_70_3"/>
<feBlend mode="normal" in="SourceGraphic" in2="effect1_dropShadow_70_3" result="shape"/>
</filter>
<filter id="filter1_d_70_3" x="5.30469" y="5.30457" width="180.391" height="180.391" filterUnits="userSpaceOnUse" color-interpolation-filters="sRGB">
<feFlood flood-opacity="0" result="BackgroundImageFix"/>
<feColorMatrix in="SourceAlpha" type="matrix" values="0 0 0 0 0 0 0 0 0 0 0 0 0 0 0 0 0 0 127 0" result="hardAlpha"/>
<feOffset dx="5" dy="5"/>
<feGaussianBlur stdDeviation="30"/>
<feComposite in2="hardAlpha" operator="out"/>
<feColorMatrix type="matrix" values="0 0 0 0 0.294118 0 0 0 0 0.309804 0 0 0 0 0.352941 0 0 0 0.1 0"/>
<feBlend mode="normal" in2="BackgroundImageFix" result="effect1_dropShadow_70_3"/>
<feBlend mode="normal" in="SourceGraphic" in2="effect1_dropShadow_70_3" result="shape"/>
</filter>
</defs>
</svg>
