<svg width="24" height="28" viewBox="0 0 24 28" fill="none" xmlns="http://www.w3.org/2000/svg">
<path d="M13.2317 0.2416C12.9882 0.248696 12.7571 0.350264 12.5872 0.524803L10.1677 2.94424C10.1011 2.99506 10.0415 3.05459 9.99072 3.12124L9.77466 3.3373C9.59891 3.51312 9.50018 3.75155 9.50018 4.00014C9.50018 4.24874 9.59891 4.48716 9.77466 4.66299L12.5872 7.47549C12.6735 7.56546 12.777 7.63729 12.8915 7.68677C13.006 7.73626 13.1292 7.7624 13.2539 7.76367C13.3787 7.76494 13.5024 7.7413 13.6179 7.69416C13.7333 7.64701 13.8383 7.5773 13.9265 7.4891C14.0147 7.4009 14.0844 7.29599 14.1315 7.18052C14.1787 7.06504 14.2023 6.94132 14.201 6.81659C14.1998 6.69187 14.1736 6.56865 14.1241 6.45415C14.0746 6.33966 14.0028 6.23619 13.9128 6.1498L12.4089 4.6459C17.4057 4.86051 21.375 8.94919 21.375 14.0001C21.375 17.1726 19.802 19.9591 17.3967 21.6576C17.2961 21.7286 17.2105 21.8188 17.1447 21.9229C17.0789 22.027 17.0343 22.143 17.0134 22.2644C16.9925 22.3857 16.9957 22.51 17.0228 22.6301C17.0499 22.7502 17.1004 22.8638 17.1714 22.9644C17.2424 23.065 17.3326 23.1507 17.4367 23.2164C17.5408 23.2822 17.6569 23.3268 17.7782 23.3477C17.8996 23.3686 18.0238 23.3654 18.144 23.3383C18.2641 23.3112 18.3777 23.2606 18.4783 23.1896C21.3605 21.1543 23.25 17.7939 23.25 14.0001C23.25 8.12332 18.7162 3.29073 12.9644 2.79897L13.9128 1.85049C14.0481 1.71876 14.1404 1.54928 14.1778 1.36421C14.2151 1.17915 14.1957 0.987122 14.1221 0.813267C14.0485 0.639412 13.9241 0.491827 13.7652 0.389827C13.6064 0.287828 13.4204 0.236165 13.2317 0.2416ZM6.11133 4.63247C5.90033 4.62378 5.69258 4.68658 5.52173 4.81069C2.63951 6.84596 0.75 10.2064 0.75 14.0001C0.75 19.877 5.28378 24.7096 11.0356 25.2013L10.0872 26.1498C9.99719 26.2362 9.92535 26.3397 9.87587 26.4542C9.82639 26.5687 9.80024 26.6919 9.79898 26.8166C9.79771 26.9413 9.82134 27.065 9.86849 27.1805C9.91563 27.296 9.98534 27.4009 10.0735 27.4891C10.1617 27.5773 10.2667 27.647 10.3821 27.6942C10.4976 27.7413 10.6213 27.7649 10.7461 27.7637C10.8708 27.7624 10.994 27.7363 11.1085 27.6868C11.223 27.6373 11.3265 27.5655 11.4128 27.4755L13.8323 25.0561C13.8989 25.0052 13.9585 24.9457 14.0093 24.8791L14.2253 24.663C14.4011 24.4872 14.4998 24.2487 14.4998 24.0001C14.4998 23.7515 14.4011 23.5131 14.2253 23.3373L11.4128 20.5248C11.3255 20.4348 11.2209 20.3633 11.1054 20.3144C10.9898 20.2656 10.8657 20.2404 10.7402 20.2404C10.5537 20.2404 10.3713 20.2961 10.2166 20.4004C10.0619 20.5046 9.94175 20.6527 9.87162 20.8256C9.80149 20.9985 9.78454 21.1883 9.82294 21.3709C9.86133 21.5535 9.95333 21.7205 10.0872 21.8505L11.5911 23.3544C6.59425 23.1398 2.625 19.0511 2.625 14.0001C2.625 10.8277 4.19799 8.04116 6.60327 6.34267C6.76572 6.23133 6.88899 6.07167 6.95559 5.88632C7.02218 5.70098 7.02872 5.49937 6.97427 5.3101C6.91983 5.12083 6.80717 4.95351 6.65227 4.83187C6.49738 4.71024 6.30811 4.64047 6.11133 4.63247Z" fill="white"/>
</svg>
