<svg width="70" height="70" viewBox="0 0 70 70" fill="none" xmlns="http://www.w3.org/2000/svg">
<path d="M44.9583 50.7259C44.9583 56.2529 40.5061 60.7051 34.9792 60.7051C29.4522 60.7051 25 56.2529 25 50.7259C25 45.199 34.9792 30 34.9792 30C34.9792 30 44.9583 45.199 44.9583 50.7259Z" fill="#FF4242"/>
<path d="M34.9789 56.8669C31.6013 56.8669 28.8379 54.1035 28.8379 50.7259C28.8379 49.8815 29.5288 49.1907 30.3731 49.1907C31.2175 49.1907 31.9084 49.8815 31.9084 50.7259C31.9084 52.4147 33.2901 53.7964 34.9789 53.7964C35.8233 53.7964 36.5142 54.4873 36.5142 55.3317C36.5142 56.1761 35.8233 56.8669 34.9789 56.8669Z" fill="#FFCCBC"/>
<path d="M26.4544 26.525C26.4544 30.665 23.1194 34 18.9794 34C14.8394 34 11.5044 30.665 11.5044 26.525C11.5044 22.385 18.9794 11 18.9794 11C18.9794 11 26.4544 22.385 26.4544 26.525Z" fill="#FF4242"/>
<path d="M18.9794 31.125C16.4494 31.125 14.3794 29.055 14.3794 26.525C14.3794 25.8925 14.8969 25.375 15.5294 25.375C16.1619 25.375 16.6794 25.8925 16.6794 26.525C16.6794 27.79 17.7144 28.825 18.9794 28.825C19.6119 28.825 20.1294 29.3425 20.1294 29.975C20.1294 30.6075 19.6119 31.125 18.9794 31.125Z" fill="#FFCCBC"/>
<path d="M56.05 28.475C56.05 31.535 53.585 34 50.525 34C47.465 34 45 31.535 45 28.475C45 25.415 50.525 17 50.525 17C50.525 17 56.05 25.415 56.05 28.475Z" fill="#FF4242"/>
<path d="M50.525 31.875C48.655 31.875 47.125 30.345 47.125 28.475C47.125 28.0075 47.5075 27.625 47.975 27.625C48.4425 27.625 48.825 28.0075 48.825 28.475C48.825 29.41 49.59 30.175 50.525 30.175C50.9925 30.175 51.375 30.5575 51.375 31.025C51.375 31.4925 50.9925 31.875 50.525 31.875Z" fill="#FFCCBC"/>
</svg>
