<svg width="36" height="39" viewBox="0 0 36 39" fill="none" xmlns="http://www.w3.org/2000/svg">
<path d="M24.0477 4.77455C25.3736 4.11342 26.9879 4.64913 27.6535 5.97676L33.1816 17.0331H27.1724L22.8464 8.38117C22.1826 7.05265 22.721 5.43926 24.0477 4.77455Z" fill="#DEC197"/>
<path d="M24.0666 9.25367C25.4095 8.59255 27.0426 9.12826 27.7171 10.4559L33.3125 21.5123H27.2298L22.8501 12.8603C22.1782 11.5318 22.7229 9.91838 24.0666 9.25367Z" fill="#DEC197"/>
<path d="M22.0495 24.9676L24.4566 16.295C24.9143 14.6959 26.7311 13.8548 28.2872 14.6494C29.4419 15.2388 29.9534 16.6238 29.5969 17.8708L27.3967 25.5705H28.1841L30.464 16.45L24.6375 4.79788C23.9746 3.47026 24.5121 1.85596 25.8397 1.19215C27.1656 0.531027 28.7799 1.06673 29.4455 2.39436L35.7163 14.9369C36.003 15.5112 36.0755 16.1678 35.9197 16.7904L32.4169 29.5748L35.1044 34.054L26.1461 38.5332L23.3368 33.6106C21.7028 31.0413 21.236 27.9005 22.0495 24.9676Z" fill="#F8DBB0"/>
<path d="M27.35 25.7585L29.5851 17.9164C29.9909 16.4947 29.268 14.9207 27.8588 14.4728C27.2757 14.2874 26.6799 14.317 26.146 14.5069V12.657C26.4389 12.5961 26.7373 12.554 27.0445 12.554C27.4584 12.554 27.8714 12.6113 28.2727 12.726C29.6057 13.1067 30.6753 14.0643 31.2075 15.3812C31.5972 16.3451 31.5882 17.4255 31.3024 18.4252L29.0727 26.2503C28.9428 26.7036 28.4841 26.9796 28.0228 26.8801C27.5157 26.7717 27.2076 26.2566 27.35 25.7585Z" fill="#DEC197"/>
<path d="M12.7623 4.77455C11.4365 4.11342 9.82221 4.64913 9.1566 5.97676L3.62842 17.0331H9.63767L13.9636 8.38117C14.6275 7.05265 14.0891 5.43926 12.7623 4.77455Z" fill="#DEC197"/>
<path d="M12.7435 9.25367C11.4006 8.59255 9.7675 9.12826 9.09294 10.4559L3.49756 21.5123H9.58027L13.96 12.8603C14.6319 11.5318 14.0872 9.91838 12.7435 9.25367Z" fill="#DEC197"/>
<path d="M14.7606 24.9676L12.3535 16.295C11.8957 14.6959 10.079 13.8548 8.52291 14.6494C7.36818 15.2388 6.85666 16.6238 7.2132 17.8708L9.41337 25.5705H8.62593L6.34604 16.45L12.1725 4.79788C12.8355 3.47026 12.298 1.85596 10.9703 1.19215C9.64449 0.531027 8.0302 1.06673 7.3646 2.39436L1.09376 14.9369C0.807097 15.5112 0.734533 16.1678 0.890408 16.7904L4.39312 29.5748L1.70562 34.054L10.664 38.5332L13.4733 33.6106C15.1073 31.0413 15.574 27.9005 14.7606 24.9676Z" fill="#F8DBB0"/>
<path d="M9.46004 25.7585L7.22494 17.9164C6.81913 16.4947 7.54207 14.9207 8.95121 14.4728C9.5344 14.2874 10.1301 14.317 10.664 14.5069V12.657C10.3711 12.5961 10.0728 12.554 9.76552 12.554C9.35165 12.554 8.93867 12.6113 8.53734 12.726C7.20434 13.1067 6.13471 14.0643 5.60259 15.3812C5.2129 16.3451 5.22186 17.4255 5.50763 18.4252L7.73736 26.2503C7.86725 26.7036 8.32592 26.9796 8.78727 26.8801C9.29432 26.7717 9.60248 26.2566 9.46004 25.7585Z" fill="#DEC197"/>
</svg>
